<svg xmlns="http://www.w3.org/2000/svg" version="1.1" xmlns:xlink="http://www.w3.org/1999/xlink" xmlns:svgjs="http://svgjs.dev/svgjs" width="128" height="128" viewBox="0 0 128 128"><g transform="matrix(0.8046875,0,0,0.8046875,12.506335372881367,27.377807348723223)"><svg viewBox="0 0 59 42" data-background-color="#2c3e58" preserveAspectRatio="xMidYMid meet" height="91" width="128" xmlns="http://www.w3.org/2000/svg" xmlns:xlink="http://www.w3.org/1999/xlink"><g id="tight-bounds" transform="matrix(1,0,0,1,-0.003629000000003657,0.005111244346949206)"><svg viewBox="0 0 59.00725799999999 41.9897775113061" height="41.9897775113061" width="59.00725799999999"><g><svg viewBox="0 0 59.00725799999999 41.9897775113061" height="41.9897775113061" width="59.00725799999999"><g><svg viewBox="0 0 59.00725799999999 41.9897775113061" height="41.9897775113061" width="59.00725799999999"><g><svg viewBox="0 0 59.00725799999999 41.9897775113061" height="41.9897775113061" width="59.00725799999999"><g><svg viewBox="0 0 59.00725799999999 41.9897775113061" height="41.9897775113061" width="59.00725799999999"><g><svg viewBox="0 0 59.00725799999999 41.9897775113061" height="41.9897775113061" width="59.00725799999999"><g><svg viewBox="0 0 59.00725799999999 41.9897775113061" height="41.9897775113061" width="59.00725799999999"><g><svg xmlns="http://www.w3.org/2000/svg" xmlns:xlink="http://www.w3.org/1999/xlink" version="1.1" x="0" y="0" viewBox="10 21.071 80.001 56.929" enable-background="new 0 0 100 100" xml:space="preserve" height="41.9897775113061" width="59.00725799999999" class="icon-icon-0" data-fill-palette-color="accent" id="icon-0"><g fill="#ffffff" data-fill-palette-color="accent"><polygon points="79.354,73.703 14.765,73.703 14.765,31.082 55.474,31.082 55.474,26.789 10,26.789 10,78 84.118,78 84.118,49.286    79.354,49.286  " fill="#ffffff" data-fill-palette-color="accent"></polygon><polygon points="87.847,29.111 84.998,39.741 80.295,35.033 54.774,60.555 45.229,51.007 28.869,67.369 25.045,63.537    45.229,43.341 54.774,52.887 76.463,31.204 71.332,26.071 90.001,21.071  " fill="#ffffff" data-fill-palette-color="accent"></polygon></g></svg></g></svg></g></svg></g></svg></g></svg></g><g></g></svg></g></svg></g><defs></defs></svg><rect width="59.00725799999999" height="41.9897775113061" fill="none" stroke="none" visibility="hidden"></rect></g></svg></g></svg>